<?xml version="1.0" encoding="UTF-8" standalone="no"?>
<!DOCTYPE svg PUBLIC "-//W3C//DTD SVG 1.1//EN"
 "http://www.w3.org/Graphics/SVG/1.1/DTD/svg11.dtd">
<!-- Generated by graphviz version 14.1.1 (20251213.1925)
 -->
<!-- Title: iTerm2_Knowledge Pages: 1 -->
<svg width="978pt" height="734pt"
 viewBox="0.00 0.00 978.00 734.00" xmlns="http://www.w3.org/2000/svg" xmlns:xlink="http://www.w3.org/1999/xlink">
<g id="graph0" class="graph" transform="scale(1 1) rotate(0) translate(4 730.25)">
<title>iTerm2_Knowledge</title>
<polygon fill="white" stroke="none" points="-4,4 -4,-730.25 974,-730.25 974,4 -4,4"/>
<g id="clust1" class="cluster">
<title>cluster_approaches</title>
<polygon fill="#f0f8ff" stroke="black" points="196,-554.5 196,-718.25 520,-718.25 520,-554.5 196,-554.5"/>
<text xml:space="preserve" text-anchor="middle" x="358" y="-700.95" font-family="Times,serif" font-size="14.00">Scripting Approaches</text>
</g>
<g id="clust2" class="cluster">
<title>cluster_objects</title>
<polygon fill="#fff8dc" stroke="black" points="94,-197 94,-524.25 230,-524.25 230,-197 94,-197"/>
<text xml:space="preserve" text-anchor="middle" x="162" y="-506.95" font-family="Times,serif" font-size="14.00">iTerm2 Object Model</text>
</g>
<g id="clust3" class="cluster">
<title>cluster_features</title>
<polygon fill="#f0fff0" stroke="black" points="8,-8 8,-167.75 450,-167.75 450,-8 8,-8"/>
<text xml:space="preserve" text-anchor="middle" x="229" y="-150.45" font-family="Times,serif" font-size="14.00">Key Features</text>
</g>
<g id="clust4" class="cluster">
<title>cluster_issues</title>
<polygon fill="#ffe4e1" stroke="black" points="248,-446.75 248,-525.25 576,-525.25 576,-446.75 248,-446.75"/>
<text xml:space="preserve" text-anchor="middle" x="412" y="-507.95" font-family="Times,serif" font-size="14.00">Known Issues</text>
</g>
<g id="clust5" class="cluster">
<title>cluster_legend</title>
<polygon fill="#ffffff" stroke="black" points="528,-640.75 528,-717.25 962,-717.25 962,-640.75 528,-640.75"/>
<text xml:space="preserve" text-anchor="middle" x="745" y="-699.95" font-family="Times,serif" font-size="14.00">Legend</text>
</g>
<!-- python_api -->
<g id="node1" class="node">
<title>python_api</title>
<path fill="#90ee90" stroke="black" d="M393.75,-685.75C393.75,-685.75 322.25,-685.75 322.25,-685.75 316.25,-685.75 310.25,-679.75 310.25,-673.75 310.25,-673.75 310.25,-659.75 310.25,-659.75 310.25,-653.75 316.25,-647.75 322.25,-647.75 322.25,-647.75 393.75,-647.75 393.75,-647.75 399.75,-647.75 405.75,-653.75 405.75,-659.75 405.75,-659.75 405.75,-673.75 405.75,-673.75 405.75,-679.75 399.75,-685.75 393.75,-685.75"/>
<text xml:space="preserve" text-anchor="middle" x="358" y="-668.45" font-family="Helvetica,sans-Serif" font-size="14.00">Python API</text>
<text xml:space="preserve" text-anchor="middle" x="358" y="-653.45" font-family="Helvetica,sans-Serif" font-size="14.00">(26 modules)</text>
</g>
<!-- app -->
<g id="node5" class="node">
<title>app</title>
<path fill="#e8f4fd" stroke="black" d="M204,-491.75C204,-491.75 146,-491.75 146,-491.75 140,-491.75 134,-485.75 134,-479.75 134,-479.75 134,-467.75 134,-467.75 134,-461.75 140,-455.75 146,-455.75 146,-455.75 204,-455.75 204,-455.75 210,-455.75 216,-461.75 216,-467.75 216,-467.75 216,-479.75 216,-479.75 216,-485.75 210,-491.75 204,-491.75"/>
<text xml:space="preserve" text-anchor="middle" x="175" y="-467.95" font-family="Helvetica,sans-Serif" font-size="14.00">Application</text>
</g>
<!-- python_api&#45;&gt;app -->
<g id="edge1" class="edge">
<title>python_api&#45;&gt;app</title>
<path fill="none" stroke="black" d="M317.07,-647.33C311.69,-645.04 306.23,-642.8 301,-640.75 249.99,-620.79 217.95,-643.88 184.5,-600.5 163.19,-572.86 164.74,-530.88 168.94,-503.14"/>
<polygon fill="black" stroke="black" points="172.37,-503.8 170.65,-493.34 165.48,-502.59 172.37,-503.8"/>
<text xml:space="preserve" text-anchor="middle" x="201.75" y="-577.62" font-family="Helvetica,sans-Serif" font-size="10.00">controls</text>
</g>
<!-- tab_title -->
<g id="node14" class="node">
<title>tab_title</title>
<path fill="#e8f4fd" stroke="black" d="M456.38,-492.75C456.38,-492.75 379.62,-492.75 379.62,-492.75 373.62,-492.75 367.62,-486.75 367.62,-480.75 367.62,-480.75 367.62,-466.75 367.62,-466.75 367.62,-460.75 373.62,-454.75 379.62,-454.75 379.62,-454.75 456.38,-454.75 456.38,-454.75 462.38,-454.75 468.38,-460.75 468.38,-466.75 468.38,-466.75 468.38,-480.75 468.38,-480.75 468.38,-486.75 462.38,-492.75 456.38,-492.75"/>
<text xml:space="preserve" text-anchor="middle" x="418" y="-475.45" font-family="Helvetica,sans-Serif" font-size="14.00">Tab Title Trap</text>
<text xml:space="preserve" text-anchor="middle" x="418" y="-460.45" font-family="Helvetica,sans-Serif" font-size="14.00">(Error &#45;10000)</text>
</g>
<!-- python_api&#45;&gt;tab_title -->
<g id="edge15" class="edge">
<title>python_api&#45;&gt;tab_title</title>
<path fill="none" stroke="green" stroke-dasharray="1,5" d="M363.75,-647.44C374.19,-614.21 396.33,-543.74 408.86,-503.86"/>
<polygon fill="green" stroke="green" points="412.15,-505.04 411.81,-494.45 405.47,-502.94 412.15,-505.04"/>
<text xml:space="preserve" text-anchor="middle" x="406.24" y="-577.62" font-family="Helvetica,sans-Serif" font-size="10.00">avoids</text>
</g>
<!-- apostrophe -->
<g id="node15" class="node">
<title>apostrophe</title>
<path fill="#e8f4fd" stroke="black" d="M337.62,-492.75C337.62,-492.75 268.38,-492.75 268.38,-492.75 262.38,-492.75 256.38,-486.75 256.38,-480.75 256.38,-480.75 256.38,-466.75 256.38,-466.75 256.38,-460.75 262.38,-454.75 268.38,-454.75 268.38,-454.75 337.62,-454.75 337.62,-454.75 343.62,-454.75 349.62,-460.75 349.62,-466.75 349.62,-466.75 349.62,-480.75 349.62,-480.75 349.62,-486.75 343.62,-492.75 337.62,-492.75"/>
<text xml:space="preserve" text-anchor="middle" x="303" y="-475.45" font-family="Helvetica,sans-Serif" font-size="14.00">Apostrophe</text>
<text xml:space="preserve" text-anchor="middle" x="303" y="-460.45" font-family="Helvetica,sans-Serif" font-size="14.00">(Error &#45;2740)</text>
</g>
<!-- python_api&#45;&gt;apostrophe -->
<g id="edge16" class="edge">
<title>python_api&#45;&gt;apostrophe</title>
<path fill="none" stroke="green" stroke-dasharray="1,5" d="M354.15,-647.49C349.35,-625.33 340.59,-586.9 331,-554.5 325.95,-537.46 319.41,-518.69 313.92,-503.64"/>
<polygon fill="green" stroke="green" points="317.25,-502.54 310.5,-494.37 310.68,-504.97 317.25,-502.54"/>
<text xml:space="preserve" text-anchor="middle" x="357.45" y="-577.62" font-family="Helvetica,sans-Serif" font-size="10.00">avoids</text>
</g>
<!-- quote_hell -->
<g id="node16" class="node">
<title>quote_hell</title>
<path fill="#e8f4fd" stroke="black" d="M556,-492.75C556,-492.75 498,-492.75 498,-492.75 492,-492.75 486,-486.75 486,-480.75 486,-480.75 486,-466.75 486,-466.75 486,-460.75 492,-454.75 498,-454.75 498,-454.75 556,-454.75 556,-454.75 562,-454.75 568,-460.75 568,-466.75 568,-466.75 568,-480.75 568,-480.75 568,-486.75 562,-492.75 556,-492.75"/>
<text xml:space="preserve" text-anchor="middle" x="527" y="-475.45" font-family="Helvetica,sans-Serif" font-size="14.00">Quote Hell</text>
<text xml:space="preserve" text-anchor="middle" x="527" y="-460.45" font-family="Helvetica,sans-Serif" font-size="14.00">(Bash+AS)</text>
</g>
<!-- python_api&#45;&gt;quote_hell -->
<g id="edge17" class="edge">
<title>python_api&#45;&gt;quote_hell</title>
<path fill="none" stroke="green" stroke-dasharray="1,5" d="M377.6,-647.42C391.02,-634.62 409.03,-616.94 424,-600.5 453.78,-567.79 485.71,-527.99 505.99,-502.05"/>
<polygon fill="green" stroke="green" points="508.6,-504.39 511.98,-494.35 503.08,-500.1 508.6,-504.39"/>
<text xml:space="preserve" text-anchor="middle" x="477.24" y="-577.62" font-family="Helvetica,sans-Serif" font-size="10.00">avoids</text>
</g>
<!-- applescript -->
<g id="node2" class="node">
<title>applescript</title>
<path fill="#ffb6c1" stroke="black" d="M310.38,-600.5C310.38,-600.5 239.62,-600.5 239.62,-600.5 233.62,-600.5 227.62,-594.5 227.62,-588.5 227.62,-588.5 227.62,-574.5 227.62,-574.5 227.62,-568.5 233.62,-562.5 239.62,-562.5 239.62,-562.5 310.38,-562.5 310.38,-562.5 316.38,-562.5 322.38,-568.5 322.38,-574.5 322.38,-574.5 322.38,-588.5 322.38,-588.5 322.38,-594.5 316.38,-600.5 310.38,-600.5"/>
<text xml:space="preserve" text-anchor="middle" x="275" y="-583.2" font-family="Helvetica,sans-Serif" font-size="14.00">AppleScript</text>
<text xml:space="preserve" text-anchor="middle" x="275" y="-568.2" font-family="Helvetica,sans-Serif" font-size="14.00">(Deprecated)</text>
</g>
<!-- applescript&#45;&gt;app -->
<g id="edge2" class="edge">
<title>applescript&#45;&gt;app</title>
<path fill="none" stroke="black" d="M257.58,-562.08C241.37,-544.94 217.08,-519.24 199.03,-500.16"/>
<polygon fill="black" stroke="black" points="201.68,-497.87 192.27,-493.01 196.59,-502.68 201.68,-497.87"/>
<text xml:space="preserve" text-anchor="middle" x="257.05" y="-535" font-family="Helvetica,sans-Serif" font-size="10.00">controls</text>
</g>
<!-- applescript&#45;&gt;tab_title -->
<g id="edge12" class="edge">
<title>applescript&#45;&gt;tab_title</title>
<path fill="none" stroke="red" stroke-dasharray="5,2" d="M304.78,-562.21C321.13,-551.85 341.56,-538.37 359,-525.25 369.13,-517.63 379.77,-508.81 389.18,-500.68"/>
<polygon fill="red" stroke="red" points="391.41,-503.38 396.64,-494.16 386.8,-498.11 391.41,-503.38"/>
<text xml:space="preserve" text-anchor="middle" x="363.72" y="-535" font-family="Helvetica,sans-Serif" font-size="10.00">causes</text>
</g>
<!-- applescript&#45;&gt;apostrophe -->
<g id="edge13" class="edge">
<title>applescript&#45;&gt;apostrophe</title>
<path fill="none" stroke="red" stroke-dasharray="5,2" d="M279.88,-562.08C284.11,-546.08 290.32,-522.63 295.24,-504.06"/>
<polygon fill="red" stroke="red" points="298.62,-504.99 297.79,-494.42 291.85,-503.19 298.62,-504.99"/>
<text xml:space="preserve" text-anchor="middle" x="303.07" y="-535" font-family="Helvetica,sans-Serif" font-size="10.00">causes</text>
</g>
<!-- jxa -->
<g id="node3" class="node">
<title>jxa</title>
<path fill="#ffffe0" stroke="black" d="M280,-685.75C280,-685.75 216,-685.75 216,-685.75 210,-685.75 204,-679.75 204,-673.75 204,-673.75 204,-659.75 204,-659.75 204,-653.75 210,-647.75 216,-647.75 216,-647.75 280,-647.75 280,-647.75 286,-647.75 292,-653.75 292,-659.75 292,-659.75 292,-673.75 292,-673.75 292,-679.75 286,-685.75 280,-685.75"/>
<text xml:space="preserve" text-anchor="middle" x="248" y="-668.45" font-family="Helvetica,sans-Serif" font-size="14.00">JXA</text>
<text xml:space="preserve" text-anchor="middle" x="248" y="-653.45" font-family="Helvetica,sans-Serif" font-size="14.00">(JavaScript)</text>
</g>
<!-- jxa&#45;&gt;app -->
<g id="edge3" class="edge">
<title>jxa&#45;&gt;app</title>
<path fill="none" stroke="black" d="M203.73,-657.28C173.16,-648.76 135.13,-632.14 118.5,-600.5 100.77,-566.77 126.95,-526.35 149.28,-500.61"/>
<polygon fill="black" stroke="black" points="151.8,-503.04 155.92,-493.28 146.62,-498.34 151.8,-503.04"/>
<text xml:space="preserve" text-anchor="middle" x="135.75" y="-577.62" font-family="Helvetica,sans-Serif" font-size="10.00">controls</text>
</g>
<!-- osascript -->
<g id="node4" class="node">
<title>osascript</title>
<path fill="#ffffe0" stroke="black" d="M500.38,-685.75C500.38,-685.75 435.62,-685.75 435.62,-685.75 429.62,-685.75 423.62,-679.75 423.62,-673.75 423.62,-673.75 423.62,-659.75 423.62,-659.75 423.62,-653.75 429.62,-647.75 435.62,-647.75 435.62,-647.75 500.38,-647.75 500.38,-647.75 506.38,-647.75 512.38,-653.75 512.38,-659.75 512.38,-659.75 512.38,-673.75 512.38,-673.75 512.38,-679.75 506.38,-685.75 500.38,-685.75"/>
<text xml:space="preserve" text-anchor="middle" x="468" y="-668.45" font-family="Helvetica,sans-Serif" font-size="14.00">osascript</text>
<text xml:space="preserve" text-anchor="middle" x="468" y="-653.45" font-family="Helvetica,sans-Serif" font-size="14.00">(CLI Bridge)</text>
</g>
<!-- osascript&#45;&gt;applescript -->
<g id="edge4" class="edge">
<title>osascript&#45;&gt;applescript</title>
<path fill="none" stroke="black" d="M429.6,-647.38C424.7,-645.11 419.74,-642.85 415,-640.75 387.73,-628.65 357.17,-615.85 331.58,-605.34"/>
<polygon fill="black" stroke="black" points="332.92,-602.11 322.34,-601.56 330.27,-608.59 332.92,-602.11"/>
<text xml:space="preserve" text-anchor="middle" x="405.28" y="-620.25" font-family="Helvetica,sans-Serif" font-size="10.00">invokes</text>
</g>
<!-- osascript&#45;&gt;quote_hell -->
<g id="edge14" class="edge">
<title>osascript&#45;&gt;quote_hell</title>
<path fill="none" stroke="red" stroke-dasharray="5,2" d="M489.37,-647.29C501.39,-635.36 515.13,-618.7 521,-600.5 531.19,-568.89 531.4,-530.51 529.88,-504.53"/>
<polygon fill="red" stroke="red" points="533.38,-504.42 529.18,-494.7 526.4,-504.92 533.38,-504.42"/>
<text xml:space="preserve" text-anchor="middle" x="545.19" y="-577.62" font-family="Helvetica,sans-Serif" font-size="10.00">causes</text>
</g>
<!-- window -->
<g id="node6" class="node">
<title>window</title>
<path fill="#e8f4fd" stroke="black" d="M195.38,-407.5C195.38,-407.5 154.62,-407.5 154.62,-407.5 148.62,-407.5 142.62,-401.5 142.62,-395.5 142.62,-395.5 142.62,-383.5 142.62,-383.5 142.62,-377.5 148.62,-371.5 154.62,-371.5 154.62,-371.5 195.38,-371.5 195.38,-371.5 201.38,-371.5 207.38,-377.5 207.38,-383.5 207.38,-383.5 207.38,-395.5 207.38,-395.5 207.38,-401.5 201.38,-407.5 195.38,-407.5"/>
<text xml:space="preserve" text-anchor="middle" x="175" y="-383.7" font-family="Helvetica,sans-Serif" font-size="14.00">Window</text>
</g>
<!-- app&#45;&gt;window -->
<g id="edge5" class="edge">
<title>app&#45;&gt;window</title>
<path fill="none" stroke="black" d="M175,-455.31C175,-444.84 175,-431.26 175,-419.25"/>
<polygon fill="black" stroke="black" points="178.5,-419.43 175,-409.43 171.5,-419.43 178.5,-419.43"/>
<text xml:space="preserve" text-anchor="middle" x="193.38" y="-427.25" font-family="Helvetica,sans-Serif" font-size="10.00">contains</text>
</g>
<!-- tab -->
<g id="node7" class="node">
<title>tab</title>
<path fill="#e8f4fd" stroke="black" d="M190,-324.25C190,-324.25 160,-324.25 160,-324.25 154,-324.25 148,-318.25 148,-312.25 148,-312.25 148,-300.25 148,-300.25 148,-294.25 154,-288.25 160,-288.25 160,-288.25 190,-288.25 190,-288.25 196,-288.25 202,-294.25 202,-300.25 202,-300.25 202,-312.25 202,-312.25 202,-318.25 196,-324.25 190,-324.25"/>
<text xml:space="preserve" text-anchor="middle" x="175" y="-300.45" font-family="Helvetica,sans-Serif" font-size="14.00">Tab</text>
</g>
<!-- window&#45;&gt;tab -->
<g id="edge6" class="edge">
<title>window&#45;&gt;tab</title>
<path fill="none" stroke="black" d="M175,-371.27C175,-361 175,-347.7 175,-335.89"/>
<polygon fill="black" stroke="black" points="178.5,-336.25 175,-326.25 171.5,-336.25 178.5,-336.25"/>
<text xml:space="preserve" text-anchor="middle" x="193.38" y="-344" font-family="Helvetica,sans-Serif" font-size="10.00">contains</text>
</g>
<!-- session -->
<g id="node8" class="node">
<title>session</title>
<path fill="#e8f4fd" stroke="black" d="M195,-241C195,-241 155,-241 155,-241 149,-241 143,-235 143,-229 143,-229 143,-217 143,-217 143,-211 149,-205 155,-205 155,-205 195,-205 195,-205 201,-205 207,-211 207,-217 207,-217 207,-229 207,-229 207,-235 201,-241 195,-241"/>
<text xml:space="preserve" text-anchor="middle" x="175" y="-217.2" font-family="Helvetica,sans-Serif" font-size="14.00">Session</text>
</g>
<!-- tab&#45;&gt;session -->
<g id="edge7" class="edge">
<title>tab&#45;&gt;session</title>
<path fill="none" stroke="black" d="M175,-288.02C175,-277.75 175,-264.45 175,-252.64"/>
<polygon fill="black" stroke="black" points="178.5,-253 175,-243 171.5,-253 178.5,-253"/>
<text xml:space="preserve" text-anchor="middle" x="193.38" y="-260.75" font-family="Helvetica,sans-Serif" font-size="10.00">contains</text>
</g>
<!-- split_panes -->
<g id="node9" class="node">
<title>split_panes</title>
<path fill="#e8f4fd" stroke="black" d="M88.12,-135.25C88.12,-135.25 27.88,-135.25 27.88,-135.25 21.88,-135.25 15.88,-129.25 15.88,-123.25 15.88,-123.25 15.88,-111.25 15.88,-111.25 15.88,-105.25 21.88,-99.25 27.88,-99.25 27.88,-99.25 88.12,-99.25 88.12,-99.25 94.12,-99.25 100.12,-105.25 100.12,-111.25 100.12,-111.25 100.12,-123.25 100.12,-123.25 100.12,-129.25 94.12,-135.25 88.12,-135.25"/>
<text xml:space="preserve" text-anchor="middle" x="58" y="-111.45" font-family="Helvetica,sans-Serif" font-size="14.00">Split Panes</text>
</g>
<!-- session&#45;&gt;split_panes -->
<g id="edge8" class="edge">
<title>session&#45;&gt;split_panes</title>
<path fill="none" stroke="black" d="M152.92,-204.61C139.92,-194.17 123.27,-180.5 109,-167.75 100.4,-160.06 91.27,-151.39 83.16,-143.47"/>
<polygon fill="black" stroke="black" points="85.79,-141.15 76.21,-136.63 80.88,-146.14 85.79,-141.15"/>
<text xml:space="preserve" text-anchor="middle" x="147.23" y="-177.5" font-family="Helvetica,sans-Serif" font-size="10.00">enables</text>
</g>
<!-- shell_int -->
<g id="node10" class="node">
<title>shell_int</title>
<path fill="#e8f4fd" stroke="black" d="M219.75,-135.25C219.75,-135.25 130.25,-135.25 130.25,-135.25 124.25,-135.25 118.25,-129.25 118.25,-123.25 118.25,-123.25 118.25,-111.25 118.25,-111.25 118.25,-105.25 124.25,-99.25 130.25,-99.25 130.25,-99.25 219.75,-99.25 219.75,-99.25 225.75,-99.25 231.75,-105.25 231.75,-111.25 231.75,-111.25 231.75,-123.25 231.75,-123.25 231.75,-129.25 225.75,-135.25 219.75,-135.25"/>
<text xml:space="preserve" text-anchor="middle" x="175" y="-111.45" font-family="Helvetica,sans-Serif" font-size="14.00">Shell Integration</text>
</g>
<!-- session&#45;&gt;shell_int -->
<g id="edge9" class="edge">
<title>session&#45;&gt;shell_int</title>
<path fill="none" stroke="black" d="M175,-204.87C175,-189.1 175,-165.4 175,-146.78"/>
<polygon fill="black" stroke="black" points="178.5,-146.92 175,-136.92 171.5,-146.92 178.5,-146.92"/>
<text xml:space="preserve" text-anchor="middle" x="185.5" y="-177.5" font-family="Helvetica,sans-Serif" font-size="10.00">uses</text>
</g>
<!-- tmux -->
<g id="node13" class="node">
<title>tmux</title>
<path fill="#e8f4fd" stroke="black" d="M429.75,-135.25C429.75,-135.25 340.25,-135.25 340.25,-135.25 334.25,-135.25 328.25,-129.25 328.25,-123.25 328.25,-123.25 328.25,-111.25 328.25,-111.25 328.25,-105.25 334.25,-99.25 340.25,-99.25 340.25,-99.25 429.75,-99.25 429.75,-99.25 435.75,-99.25 441.75,-105.25 441.75,-111.25 441.75,-111.25 441.75,-123.25 441.75,-123.25 441.75,-129.25 435.75,-135.25 429.75,-135.25"/>
<text xml:space="preserve" text-anchor="middle" x="385" y="-111.45" font-family="Helvetica,sans-Serif" font-size="14.00">tmux Integration</text>
</g>
<!-- session&#45;&gt;tmux -->
<g id="edge11" class="edge">
<title>session&#45;&gt;tmux</title>
<path fill="none" stroke="black" d="M207.29,-212.91C237.48,-203.73 283.29,-188.01 320,-167.75 332.71,-160.73 345.64,-151.42 356.59,-142.76"/>
<polygon fill="black" stroke="black" points="358.55,-145.68 364.1,-136.66 354.13,-140.25 358.55,-145.68"/>
<text xml:space="preserve" text-anchor="middle" x="322.68" y="-177.5" font-family="Helvetica,sans-Serif" font-size="10.00">integrates</text>
</g>
<!-- triggers -->
<g id="node11" class="node">
<title>triggers</title>
<path fill="#e8f4fd" stroke="black" d="M300.75,-52C300.75,-52 259.25,-52 259.25,-52 253.25,-52 247.25,-46 247.25,-40 247.25,-40 247.25,-28 247.25,-28 247.25,-22 253.25,-16 259.25,-16 259.25,-16 300.75,-16 300.75,-16 306.75,-16 312.75,-22 312.75,-28 312.75,-28 312.75,-40 312.75,-40 312.75,-46 306.75,-52 300.75,-52"/>
<text xml:space="preserve" text-anchor="middle" x="280" y="-28.2" font-family="Helvetica,sans-Serif" font-size="14.00">Triggers</text>
</g>
<!-- profiles -->
<g id="node12" class="node">
<title>profiles</title>
<path fill="#e8f4fd" stroke="black" d="M298.5,-135.25C298.5,-135.25 261.5,-135.25 261.5,-135.25 255.5,-135.25 249.5,-129.25 249.5,-123.25 249.5,-123.25 249.5,-111.25 249.5,-111.25 249.5,-105.25 255.5,-99.25 261.5,-99.25 261.5,-99.25 298.5,-99.25 298.5,-99.25 304.5,-99.25 310.5,-105.25 310.5,-111.25 310.5,-111.25 310.5,-123.25 310.5,-123.25 310.5,-129.25 304.5,-135.25 298.5,-135.25"/>
<text xml:space="preserve" text-anchor="middle" x="280" y="-111.45" font-family="Helvetica,sans-Serif" font-size="14.00">Profiles</text>
</g>
<!-- profiles&#45;&gt;triggers -->
<g id="edge10" class="edge">
<title>profiles&#45;&gt;triggers</title>
<path fill="none" stroke="black" d="M280,-99.02C280,-88.75 280,-75.45 280,-63.64"/>
<polygon fill="black" stroke="black" points="283.5,-64 280,-54 276.5,-64 283.5,-64"/>
<text xml:space="preserve" text-anchor="middle" x="298.38" y="-71.75" font-family="Helvetica,sans-Serif" font-size="10.00">contains</text>
</g>
<!-- legend_modern -->
<g id="node17" class="node">
<title>legend_modern</title>
<path fill="#90ee90" stroke="black" d="M683.62,-684.75C683.62,-684.75 548.38,-684.75 548.38,-684.75 542.38,-684.75 536.38,-678.75 536.38,-672.75 536.38,-672.75 536.38,-660.75 536.38,-660.75 536.38,-654.75 542.38,-648.75 548.38,-648.75 548.38,-648.75 683.62,-648.75 683.62,-648.75 689.62,-648.75 695.62,-654.75 695.62,-660.75 695.62,-660.75 695.62,-672.75 695.62,-672.75 695.62,-678.75 689.62,-684.75 683.62,-684.75"/>
<text xml:space="preserve" text-anchor="middle" x="616" y="-660.95" font-family="Helvetica,sans-Serif" font-size="14.00">Modern/Recommended</text>
</g>
<!-- legend_deprecated -->
<g id="node18" class="node">
<title>legend_deprecated</title>
<path fill="#ffb6c1" stroke="black" d="M787.88,-684.75C787.88,-684.75 726.12,-684.75 726.12,-684.75 720.12,-684.75 714.12,-678.75 714.12,-672.75 714.12,-672.75 714.12,-660.75 714.12,-660.75 714.12,-654.75 720.12,-648.75 726.12,-648.75 726.12,-648.75 787.88,-648.75 787.88,-648.75 793.88,-648.75 799.88,-654.75 799.88,-660.75 799.88,-660.75 799.88,-672.75 799.88,-672.75 799.88,-678.75 793.88,-684.75 787.88,-684.75"/>
<text xml:space="preserve" text-anchor="middle" x="757" y="-660.95" font-family="Helvetica,sans-Serif" font-size="14.00">Deprecated</text>
</g>
<!-- legend_legacy -->
<g id="node19" class="node">
<title>legend_legacy</title>
<path fill="#ffffe0" stroke="black" d="M942.38,-684.75C942.38,-684.75 829.62,-684.75 829.62,-684.75 823.62,-684.75 817.62,-678.75 817.62,-672.75 817.62,-672.75 817.62,-660.75 817.62,-660.75 817.62,-654.75 823.62,-648.75 829.62,-648.75 829.62,-648.75 942.38,-648.75 942.38,-648.75 948.38,-648.75 954.38,-654.75 954.38,-660.75 954.38,-660.75 954.38,-672.75 954.38,-672.75 954.38,-678.75 948.38,-684.75 942.38,-684.75"/>
<text xml:space="preserve" text-anchor="middle" x="886" y="-660.95" font-family="Helvetica,sans-Serif" font-size="14.00">Legacy/Workaround</text>
</g>
</g>
</svg>
